<?xml version="1.0" ?><svg viewBox="0 0 64 64" xmlns="http://www.w3.org/2000/svg"><title/><g data-name="12-Firefighter" id="_12-Firefighter"><polygon points="20 54 26 54 26 55 26 59 26 60 20 60 18 60 18 54 20 54" style="fill:#afb4c8"/><polygon points="38 54 44 54 46 54 46 60 44 60 38 60 38 59 38 55 38 54" style="fill:#afb4c8"/><polygon points="32 50 22 50 22 47 32 47 42 47 42 50 32 50" style="fill:#afb4c8"/><polygon points="38 55 38 59 32 59 26 59 26 55 32 55 38 55" style="fill:#414952"/><polygon points="22 47 22 50 20 50 18 50 18 39.11 22 38.26 22 47" style="fill:#414952"/><polygon points="46 39.11 46 50 44 50 42 50 42 47 42 38.26 46 39.11" style="fill:#414952"/><polygon points="32 59 32 63 20 63 20 60 26 60 26 59 32 59" style="fill:#ff7045"/><polygon points="38 60 44 60 44 63 32 63 32 59 38 59 38 60" style="fill:#ff7045"/><polygon points="22 50 32 50 32 55 26 55 26 54 20 54 20 50 22 50" style="fill:#ff7045"/><polygon points="44 50 44 54 38 54 38 55 32 55 32 50 42 50 44 50" style="fill:#ff7045"/><polygon points="42 38.26 42 47 32 47 32 41 36 37 42 38.26" style="fill:#ff7045"/><polygon points="32 41 32 47 22 47 22 38.26 28 37 32 41" style="fill:#ff7045"/><polygon points="36 37 32 41 32 45 36 41 42 42.26 42 38.26 36 37" style="fill:#f92814"/><polygon points="28 37 22 38.26 22 42.26 28 41 32 45 32 41 28 37" style="fill:#f92814"/><polygon points="18 60 20 60 20 63 15 63 9 63 9 41 18 39.11 18 50 20 50 20 54 18 54 18 60" style="fill:#ff7045"/><polygon points="46 54 44 54 44 50 46 50 46 39.11 55 41 55 63 49 63 44 63 44 60 46 60 46 54" style="fill:#ff7045"/><polygon points="18 39.11 9 41 9 45 18 43.11 18 39.11" style="fill:#f92814"/><rect height="4" style="fill:#f92814" width="2" x="18" y="50"/><rect height="3" style="fill:#f92814" width="2" x="18" y="60"/><rect height="4" style="fill:#f92814" width="2" x="44" y="50"/><rect height="3" style="fill:#f92814" width="2" x="44" y="60"/><polygon points="46 39.11 46 43.11 55 45 55 41 46 39.11" style="fill:#f92814"/><path d="M24,14v2a4,4,0,0,0,0,8v1a8.014,8.014,0,0,0,2.34,5.66c.12.12.24.23.37.34H23a7.079,7.079,0,0,1-6.93-8.63l2.02-8.42c2.3-1.31,4.28-2.3,5.88-3.02L24,11Z" style="fill:#c42f12"/><path d="M40.03,10.93c1.6.72,3.58,1.71,5.88,3.02l2.02,8.42A7.079,7.079,0,0,1,41,31H37.29A7.975,7.975,0,0,0,40,25V24a4,4,0,0,0,0-8V11Z" style="fill:#c42f12"/><path d="M25,1H39a5,5,0,0,1,5,5l1.91,7.95c-2.3-1.31-4.28-2.3-5.88-3.02A32.656,32.656,0,0,0,35,9V4H29V9a32.656,32.656,0,0,0-5.03,1.93c-1.6.72-3.58,1.71-5.88,3.02L20,6A5,5,0,0,1,25,1Z" style="fill:#ff7045"/><path d="M20,9a5,5,0,0,1,5-5H39a5,5,0,0,1,5,5l1.078,4.489c.278.153.545.3.832.461L44,6a5,5,0,0,0-5-5H25a5,5,0,0,0-5,5l-1.91,7.95c.287-.164.554-.308.832-.461Z" style="fill:#f92814"/><polygon points="35 4 35 9 32 10 29 9 29 4 35 4" style="fill:#ffa426"/><path d="M35,9a32.656,32.656,0,0,1,5.03,1.93L40,11v3H24V11l-.03-.07A32.656,32.656,0,0,1,29,9l3,1Z" style="fill:#414952"/><path d="M24,16v8a4,4,0,0,1,0-8Z" style="fill:#eb975d"/><path d="M40,16a4,4,0,0,1,0,8Z" style="fill:#eb975d"/><path d="M36,32v5l-4,4-4-4V32l.03-.06a7.964,7.964,0,0,0,7.94,0Z" style="fill:#ffb680"/><path d="M35.97,31.94a7.964,7.964,0,0,1-7.94,0L28,32v3l.03-.06a7.964,7.964,0,0,0,7.94,0L36,35V32Z" style="fill:#eb975d"/><path d="M26.71,31c-.13-.11-.25-.22-.37-.34A8.014,8.014,0,0,1,24,25V14H40V25a7.975,7.975,0,0,1-2.71,6,7.334,7.334,0,0,1-1.32.94,7.964,7.964,0,0,1-7.94,0A7.334,7.334,0,0,1,26.71,31Z" style="fill:#ffdaaa"/><polygon points="24 14 24 16 24 18 40 18 40 16 40 14 24 14" style="fill:#ffb680"/><path d="M40,11V25a7.975,7.975,0,0,1-2.71,6,7.334,7.334,0,0,1-1.32.94,7.964,7.964,0,0,1-7.94,0A7.334,7.334,0,0,1,26.71,31c-.13-.11-.25-.22-.37-.34A8.014,8.014,0,0,1,24,25V11" style="fill:none;stroke:#000;stroke-linejoin:round;stroke-width:2px"/><path d="M40,24a4,4,0,0,0,0-8" style="fill:none;stroke:#000;stroke-linejoin:round;stroke-width:2px"/><path d="M24,16a4,4,0,0,0,0,8" style="fill:none;stroke:#000;stroke-linejoin:round;stroke-width:2px"/><polyline points="28 32 28 37 22 38.26 18 39.11 9 41 9 63 15 63 20 63 32 63 44 63 49 63 55 63 55 41 46 39.11 42 38.26 36 37 36 32" style="fill:none;stroke:#000;stroke-linejoin:round;stroke-width:2px"/><line style="fill:none;stroke:#000;stroke-linejoin:round;stroke-width:2px" x1="15" x2="15" y1="63" y2="50"/><line style="fill:none;stroke:#000;stroke-linejoin:round;stroke-width:2px" x1="49" x2="49" y1="63" y2="50"/><path d="M37,31h4a7.079,7.079,0,0,0,6.93-8.63l-2.02-8.42L44,6a5,5,0,0,0-5-5H25a5,5,0,0,0-5,5l-1.91,7.95-2.02,8.42A7.079,7.079,0,0,0,23,31h4" style="fill:none;stroke:#000;stroke-linejoin:round;stroke-width:2px"/><polygon points="35 9 35 4 29 4 29 9 32 10 35 9" style="fill:none;stroke:#000;stroke-linejoin:round;stroke-width:2px"/><path d="M29,9a32.656,32.656,0,0,0-5.03,1.93c-1.6.72-3.58,1.71-5.88,3.02-.03.02-.06.03-.09.05" style="fill:none;stroke:#000;stroke-linejoin:round;stroke-width:2px"/><path d="M35,9a32.656,32.656,0,0,1,5.03,1.93c1.6.72,3.58,1.71,5.88,3.02.03.02.06.03.09.05" style="fill:none;stroke:#000;stroke-linejoin:round;stroke-width:2px"/><line style="fill:none;stroke:#000;stroke-linejoin:round;stroke-width:2px" x1="24" x2="40" y1="14" y2="14"/><polyline points="28 37 32 41 36 37" style="fill:none;stroke:#000;stroke-linejoin:round;stroke-width:2px"/><polyline points="22 38 22 38.26 22 47 22 50 20 50 18 50 18 39.11 18 39" style="fill:none;stroke:#000;stroke-linejoin:round;stroke-width:2px"/><polyline points="46 39 46 39.11 46 50 44 50 42 50 42 47 42 38.26 42 38" style="fill:none;stroke:#000;stroke-linejoin:round;stroke-width:2px"/><polyline points="22 50 32 50 42 50" style="fill:none;stroke:#000;stroke-linejoin:round;stroke-width:2px"/><polyline points="22 47 32 47 42 47" style="fill:none;stroke:#000;stroke-linejoin:round;stroke-width:2px"/><line style="fill:none;stroke:#000;stroke-linejoin:round;stroke-width:2px" x1="20" x2="20" y1="50" y2="54"/><line style="fill:none;stroke:#000;stroke-linejoin:round;stroke-width:2px" x1="20" x2="20" y1="60" y2="63"/><line style="fill:none;stroke:#000;stroke-linejoin:round;stroke-width:2px" x1="44" x2="44" y1="60" y2="63"/><line style="fill:none;stroke:#000;stroke-linejoin:round;stroke-width:2px" x1="44" x2="44" y1="50" y2="54"/><polygon points="26 59 26 60 20 60 18 60 18 54 20 54 26 54 26 55 26 59" style="fill:none;stroke:#000;stroke-linejoin:round;stroke-width:2px"/><polygon points="44 54 46 54 46 60 44 60 38 60 38 59 38 55 38 54 44 54" style="fill:none;stroke:#000;stroke-linejoin:round;stroke-width:2px"/><polyline points="26 59 32 59 38 59" style="fill:none;stroke:#000;stroke-linejoin:round;stroke-width:2px"/><polyline points="26 55 32 55 38 55" style="fill:none;stroke:#000;stroke-linejoin:round;stroke-width:2px"/><line style="fill:none;stroke:#000;stroke-linejoin:round;stroke-width:2px" x1="32" x2="32" y1="41" y2="47"/><line style="fill:none;stroke:#000;stroke-linejoin:round;stroke-width:2px" x1="32" x2="32" y1="50" y2="55"/><line style="fill:none;stroke:#000;stroke-linejoin:round;stroke-width:2px" x1="32" x2="32" y1="59" y2="63"/><line style="fill:none;stroke:#000;stroke-linejoin:round;stroke-width:2px" x1="21" x2="23" y1="57" y2="57"/><line style="fill:none;stroke:#000;stroke-linejoin:round;stroke-width:2px" x1="41" x2="43" y1="57" y2="57"/></g></svg>